External Loads File
version=1
nRows=39
nColumns=13
Range=5.000000e-03-10 seconds
endheader
time 	forceRightX 	forceRightY 	forceRightZ 	pointRightX 	pointRightY 	pointRightZ 	forceLeftX 	forceLeftY 	forceLeftZ 	pointLeftX 	pointLeftY 	pointLeftZ 		
0.005000 -9.616725 59.799636 -0.000000 0.308404 0.394726 -0.104627 21.948919 108.280157 -0.000000 0.037066 0.247851 -0.340688
0.010000 -9.233649 60.313080 -0.000000 0.308423 0.394738 -0.104645 22.234265 108.186254 -0.000000 0.037051 0.247853 -0.340685
0.015000 -8.974554 60.775109 -0.000000 0.308449 0.394723 -0.104653 22.556717 108.109041 -0.000000 0.037040 0.247860 -0.340697
0.020000 -8.907131 61.142504 -0.000000 0.308493 0.394755 -0.104652 22.898623 108.070260 -0.000000 0.037024 0.247879 -0.340696
0.025000 -9.123155 61.391042 -0.000000 0.308479 0.394765 -0.104552 23.071803 108.120904 -0.000000 0.036676 0.247087 -0.340284
0.030000 -9.346102 61.566140 -0.000000 0.308582 0.394766 -0.104558 23.449465 108.174503 -0.000000 0.036582 0.246975 -0.340149
0.035000 -9.625516 61.668420 -0.000000 0.308621 0.394722 -0.104587 23.826761 108.250157 -0.000000 0.036546 0.246950 -0.340112
0.040000 -9.928613 61.709732 -0.000000 0.308655 0.394653 -0.104547 24.173887 108.325014 -0.000000 0.036515 0.246979 -0.340083
0.045000 -10.249671 61.698203 -0.000000 0.308707 0.394593 -0.104543 24.435177 108.385565 -0.000000 0.036488 0.247003 -0.340044
0.050000 -10.566431 61.650788 -0.000000 0.308757 0.394529 -0.104542 24.600169 108.411096 -0.000000 0.036482 0.247075 -0.340042
0.055000 -10.869716 61.589516 -0.000000 0.308804 0.394454 -0.104522 24.646004 108.384489 -0.000000 0.036472 0.247132 -0.340012
0.060000 -11.135395 61.535394 -0.000000 0.308842 0.394370 -0.104527 24.591002 108.287663 -0.000000 0.036455 0.247197 -0.340016
0.065000 -11.340399 61.499603 -0.000000 0.308884 0.394278 -0.104519 24.466723 108.115447 -0.000000 0.036470 0.247284 -0.340031
0.070000 -11.463344 61.486742 -0.000000 0.308931 0.394169 -0.104509 24.302743 107.875148 -0.000000 0.036482 0.247366 -0.340050
0.075000 -11.497819 61.496096 -0.000000 0.308966 0.394062 -0.104490 24.105186 107.588635 -0.000000 0.036472 0.247456 -0.340036
0.080000 -11.443862 61.527846 -0.000000 0.309012 0.393942 -0.104482 23.877598 107.285030 -0.000000 0.036498 0.247558 -0.340031
0.085000 -11.291093 61.588901 -0.000000 0.309051 0.393809 -0.104477 23.645557 106.986053 -0.000000 0.036491 0.247692 -0.340003
0.090000 -11.053576 61.682447 -0.000000 0.309105 0.393657 -0.104486 23.411111 106.716221 -0.000000 0.036486 0.247791 -0.339997
0.095000 -10.730007 61.811547 -0.000000 0.309154 0.393428 -0.104477 23.240660 106.486586 -0.000000 0.036494 0.247931 -0.340025
0.100000 -10.384472 61.965753 -0.000000 0.309201 0.393242 -0.104477 23.105244 106.316929 -0.000000 0.036499 0.248071 -0.340015
0.105000 -10.032827 62.140396 -0.000000 0.309258 0.392995 -0.104474 23.042934 106.191248 -0.000000 0.036495 0.248230 -0.340042
0.110000 -9.704950 62.324934 -0.000000 0.309341 0.392738 -0.104496 23.037680 106.096606 -0.000000 0.036461 0.248409 -0.340003
0.115000 -9.431175 62.513357 -0.000000 0.309400 0.392511 -0.104468 23.028989 106.031698 -0.000000 0.036446 0.248533 -0.340021
0.120000 -9.150110 62.722776 -0.000000 0.309476 0.392308 -0.104458 23.061530 105.968848 -0.000000 0.036404 0.248754 -0.340001
0.125000 -8.849492 62.960455 -0.000000 0.309540 0.392079 -0.104464 23.089991 105.893342 -0.000000 0.036360 0.249028 -0.339994
0.130000 -8.561750 63.215730 -0.000000 0.309587 0.391839 -0.104457 23.045560 105.801206 -0.000000 0.036316 0.249245 -0.339992
0.135000 -8.283972 63.476926 -0.000000 0.309661 0.391587 -0.104457 22.969592 105.683241 -0.000000 0.036253 0.249490 -0.339958
0.140000 -8.020538 63.732915 -0.000000 0.309728 0.391218 -0.104445 22.899661 105.549320 -0.000000 0.036157 0.249718 -0.339945
0.145000 -7.793440 63.975185 -0.000000 0.309844 0.390866 -0.104447 22.831046 105.428882 -0.000000 0.036097 0.249958 -0.339958
0.150000 -7.606847 64.202579 -0.000000 0.309918 0.390561 -0.104433 22.784784 105.349379 -0.000000 0.036043 0.250221 -0.339951
0.155000 -7.374834 64.426255 -0.000000 0.310001 0.390018 -0.104391 22.922193 105.296378 -0.000000 0.035950 0.250589 -0.339952
0.160000 -7.263605 64.628559 -0.000000 0.310081 0.389955 -0.104395 22.962867 105.327870 -0.000000 0.035870 0.250928 -0.339944
0.165000 -7.110671 64.830748 -0.000000 0.310165 0.389632 -0.104396 23.141837 105.382030 -0.000000 0.035767 0.251284 -0.339918
0.170000 -6.971365 65.025134 -0.000000 0.310291 0.389246 -0.104401 23.353263 105.481213 -0.000000 0.035657 0.251561 -0.339927
0.175000 -6.810691 65.203092 -0.000000 0.310403 0.388620 -0.104392 23.677264 105.610683 -0.000000 0.035511 0.251888 -0.339901
0.180000 -6.778124 65.330482 -0.000000 0.310506 0.388247 -0.104376 23.925278 105.814675 -0.000000 0.035406 0.252214 -0.339882
0.185000 -6.824228 65.401081 -0.000000 0.310600 0.387886 -0.104373 24.227365 106.070683 -0.000000 0.035276 0.252619 -0.339910
0.190000 -6.945535 65.419197 -0.000000 0.310709 0.387538 -0.104332 24.596589 106.378493 -0.000000 0.035134 0.253052 -0.339904
0.195000 -7.116990 65.406483 -0.000000 0.310864 0.387168 -0.104357 25.024566 106.723668 -0.000000 0.035010 0.253413 -0.339895
